<?xml version="1.0" encoding="UTF-8"?>
<svg width="400px" height="327px" viewBox="0 0 400 327" version="1.1" xmlns="http://www.w3.org/2000/svg" xmlns:xlink="http://www.w3.org/1999/xlink">
    <!-- Generator: Sketch 51.1 (57501) - http://www.bohemiancoding.com/sketch -->
    <title>Group 90</title>
    <desc>Created with Sketch.</desc>
    <defs>
        <filter x="-68.0%" y="-128.7%" width="236.1%" height="357.4%" filterUnits="objectBoundingBox" id="filter-1">
            <feGaussianBlur stdDeviation="13.5849057" in="SourceGraphic"></feGaussianBlur>
        </filter>
        <polygon id="path-2" points="12.0054728 9.00302267 0.37353268 9.00302267 0.37353268 0.0501112698 12.0054728 0.0501112698 12.0054728 9.00302267"></polygon>
        <linearGradient x1="100%" y1="43.8477409%" x2="46.7065713%" y2="100%" id="linearGradient-4">
            <stop stop-color="#F2F4FE" offset="0%"></stop>
            <stop stop-color="#DDE2FB" offset="100%"></stop>
        </linearGradient>
        <path d="M0,0 L0,38.6519121 C18.1188202,46.2121313 30.6646791,52.1094278 37.6375767,56.3438015 C44.6104744,60.5781752 51.8602965,66.7020376 59.387043,74.7153888 L59.387043,36.7285626 C53.8894613,29.0997732 46.6396392,22.4833005 37.6375767,16.8791445 C28.6355143,11.2749886 16.0896554,5.64860706 0,0 Z" id="path-5"></path>
        <path d="M0,0 L0,38.6519121 C18.1188202,46.2121313 30.6646791,52.1094278 37.6375767,56.3438015 C44.6104744,60.5781752 51.8602965,66.7020376 59.387043,74.7153888 L59.387043,36.7285626 C53.8894613,29.0997732 46.6396392,22.4833005 37.6375767,16.8791445 C28.6355143,11.2749886 16.0896554,5.64860706 0,0 Z" id="path-7"></path>
        <linearGradient x1="0%" y1="4.43390758%" x2="100%" y2="100%" id="linearGradient-9">
            <stop stop-color="#99EEEC" offset="0%"></stop>
            <stop stop-color="#49D3DE" offset="100%"></stop>
        </linearGradient>
        <ellipse id="path-10" cx="22.705314" cy="22.6921875" rx="22.705314" ry="22.6921875"></ellipse>
        <ellipse id="path-12" cx="19.3236715" cy="19.3125" rx="19.3236715" ry="19.3125"></ellipse>
        <ellipse id="path-14" cx="27.0531401" cy="27.0375" rx="27.0531401" ry="27.0375"></ellipse>
    </defs>
    <g id="Page-2" stroke="none" stroke-width="1" fill="none" fill-rule="evenodd">
        <g id="Group-90">
            <g id="Group-89">
                <g id="Group-28-Copy" transform="translate(258.000000, 203.000000) scale(-1, 1) translate(-258.000000, -203.000000) translate(209.000000, 103.000000)">
                    <path d="M62.8484157,186.048341 C68.6793856,186.048341 93.9244995,182.028363 93.9244995,173.369562 C93.9244995,164.710761 68.6793856,154.692049 62.8484157,154.692049 C57.0174459,154.692049 34.0210211,171.146936 34.0210211,179.805737 C34.0210211,188.464538 57.0174459,186.048341 62.8484157,186.048341 Z" id="Oval-14-Copy-9" fill="#000000" opacity="0.05" filter="url(#filter-1)" transform="translate(63.972760, 170.525193) scale(-1, 1) rotate(31.000000) translate(-63.972760, -170.525193) "></path>
                    <path d="M68.0673175,17.7028503 C68.0673175,17.7028503 64.9441867,14.4617621 65.2485378,13.7415203 C65.5490365,13.0199923 64.7053288,7.97829963 65.2485378,8.10176966 C65.7891785,8.21880895 67.0656555,10.5004321 67.1439906,11.0984901 C67.2274624,11.6991203 67.7090307,12.9003807 67.7090307,12.9003807 C67.7090307,12.9003807 67.5921701,6.79118678 67.5497921,5.90117369 C67.5318136,5.53462205 66.5070363,1.89225631 66.6444438,1.55528603 C66.7189263,1.36493641 66.7638727,0.63569157 67.1080335,0.6588422 C67.4945723,0.684565122 68.0223711,1.42281298 68.2586606,1.81894598 C68.55017,2.29482003 68.8391109,3.24399585 69.1344728,4.6934825 C69.3592047,5.798282 69.7097864,7.20789812 69.7097864,7.82138981 C69.7097864,7.82138981 70.7242902,5.4998961 70.7448371,5.25810064 C70.7692366,5.02016361 70.0655048,3.21827293 70.0655048,3.21827293 C70.0655048,3.21827293 69.8253628,1.25690013 70.9040757,1.93727142 C71.985357,2.61892885 74.2198338,6.98025026 74.2596435,7.30050064 C74.2994531,7.62203716 74.4638284,9.09981903 74.2622118,10.0206996 C74.0644478,10.9441525 73.2631182,14.540217 73.2631182,14.540217 L68.0673175,17.7028503 Z" id="Fill-563" fill="#F5DAB7"></path>
                    <path d="M75.1127256,15.4219988 C75.1127256,15.4219988 78.6146901,31.0255232 78.8548322,32.2242114 C79.0949742,33.4228995 84.6246623,48.2663116 84.9315818,52.2713706 C85.2410697,56.2764295 80.0208695,58.1953595 80.0208695,58.1953595 L69.0462495,55.506028 L68.5813756,26.2204814 C68.5813756,26.2204814 67.8468234,18.5421892 67.0917244,18.0598844 C66.3353411,17.5814381 73.6911361,9.06715092 75.1127256,15.4219988" id="Fill-565" fill="#EEEEEE"></path>
                    <path d="M10.8874411,39.2860537 C10.8874411,39.2860537 11.1699612,36.9169726 11.9417546,37.3233948 C12.7148322,37.7259585 13.7460304,41.4519238 14.088907,42.8255278 C14.4433413,44.2017041 14.1775156,46.2389595 14.0144245,46.9656321 C13.9694781,47.1546956 10.6293205,50.5141092 10.6293205,50.5141092 C10.6293205,50.5141092 9.0703235,51.4221283 5.51442333,47.458226 C2.10491992,43.6589505 2.49659545,43.8235772 1.11096299,43.4801762 C0.733413459,43.3850013 -0.846130494,42.3329338 1.12894154,42.3162139 C2.86001898,42.3007802 3.24270524,43.0493172 3.24270524,43.0493172 L4.57953878,44.3779061 C4.57953878,44.3779061 4.75547172,44.323888 4.64374788,44.0460804 C4.29958708,43.1522089 3.21702159,41.0557908 2.17298157,40.0924673 C1.9341237,39.8712502 1.07629007,39.3465026 0.942735137,38.8590532 C0.860547485,38.5632396 1.0172177,38.0809348 1.76718003,38.2558507 C2.45550162,38.4114744 3.47899474,39.0301107 3.61511804,39.1625837 C4.10439141,39.6487469 5.94847687,42.9207026 6.22457602,42.6750487 C6.37867787,42.5412895 5.97672888,41.1278149 5.22162981,39.6500331 C4.57440205,38.3857515 3.69858987,37.5960578 3.55861403,37.5124583 C2.6648233,36.9349787 3.71271588,36.3317762 4.39333238,36.6160144 C5.25501855,36.9748492 6.70357593,38.839761 7.67698594,41.0416432 C7.79898324,41.3155923 8.03013601,41.7773187 7.69881704,40.4911726 C7.54599937,39.9111207 7.45482244,39.2204603 7.01306381,38.4487726 C6.73953303,37.9690401 4.95451994,37.5073137 4.80812319,36.9594155 C4.63475861,36.33049 5.36674239,36.3240593 5.7956592,36.3677882 C5.93049832,36.3819359 6.17449292,36.5079782 6.45829715,36.6353066 C6.98481181,36.8668129 7.54343101,36.9594155 8.04169365,37.5420396 C9.23084626,38.9246467 9.90247348,40.6159288 10.5009023,40.9863389 C11.3934089,41.5393817 11.5025643,41.6268396 11.5025643,41.6268396 L10.8874411,39.2860537 Z" id="Fill-567" fill="#F5DAB7"></path>
                    <g id="Group-571" transform="translate(41.297900, 171.905079)">
                        <mask id="mask-3" fill="white">
                            <use xlink:href="#path-2"></use>
                        </mask>
                        <g id="Clip-570"></g>
                        <path d="M11.5072987,3.84056086 C11.5072987,3.84056086 12.4177838,6.88229637 11.776977,7.58581829 C11.1348859,8.29448479 8.05284896,9.7066732 7.05889204,8.5851538 C6.06236674,7.46749285 2.36649073,5.61930091 0.671370389,2.16985708 C-1.02631832,-1.27444217 5.02346344,0.540309975 6.47715755,0.434845995 C7.92956748,0.330668161 11.5072987,3.84056086 11.5072987,3.84056086" id="Fill-569" fill="#946134" mask="url(#mask-3)"></path>
                    </g>
                    <path d="M56.6802182,35.6360997 C56.5556525,36.5994232 57.5162207,37.5228761 58.8273706,37.6939335 C60.1410889,37.8662771 61.3071262,37.2219179 61.4291235,36.254736 C61.5575417,35.2901264 60.5982577,34.3653874 59.2845395,34.19433 C57.9746737,34.0232725 56.8073522,34.6663456 56.6802182,35.6360997 Z" id="Stroke-572" stroke="#231916" stroke-width="0.962830189"></path>
                    <path d="M65.2481526,49.1306018 C65.2378791,50.1106451 66.0186618,50.910628 66.993356,50.9222033 C67.9654819,50.9337786 68.7655273,50.1530879 68.7822217,49.1730446 L68.8220313,45.4805192 C68.8348731,44.5030481 68.0528062,43.7043514 67.0781121,43.6940623 C66.1021337,43.6824869 65.307225,44.4631776 65.293099,45.4406487 L65.2481526,49.1306018 Z" id="Fill-574" fill="#F5DAB7"></path>
                    <path d="M85.5843315,54.9307348 C85.5843315,54.9307348 84.7444765,47.6730124 79.9698875,48.0614286 C75.1978669,48.4537031 75.332706,47.0800991 75.332706,47.0800991 C75.332706,47.0800991 66.8006003,47.2511565 64.9372521,49.1379328 C64.5532817,49.5250628 64.5404399,51.2690769 64.5404399,51.2690769 C64.5404399,51.2690769 57.0921838,53.8979595 53.3012783,56.4676794 C45.7721188,61.569821 28.6809396,54.0895953 28.6809396,54.0895953 C28.6809396,54.0895953 19.0958045,48.8189686 15.5784298,46.1540739 C13.9102773,44.88722 9.30776876,47.458226 9.30776876,47.458226 C9.30776876,47.458226 7.58054387,51.2729354 9.19219238,52.898624 C14.465044,58.2104074 28.9994167,67.0269389 28.9994167,67.0269389 C28.9994167,67.0269389 55.1582056,77.1566255 57.8652614,73.2686059 C60.6750518,69.246827 85.5843315,54.9307348 85.5843315,54.9307348" id="Fill-576" fill="#EEEEEE"></path>
                    <path d="M58.8798937,32.357842 C58.8798937,32.357842 58.9415344,36.8850762 58.0130708,39.0277956 C57.0858913,41.1640843 60.0497835,46.4424278 62.1892309,46.5105936 C64.3967399,46.5813316 65.3598764,47.306718 65.3598764,47.306718 L66.6440585,46.4411417 L70.9563419,38.6226596 L58.9184191,31.5591452 L58.8798937,32.357842 Z" id="Fill-578" fill="#F5DAB7"></path>
                    <path d="M58.916236,31.5967007 C58.8481744,31.7510382 58.9432039,32.4314095 59.0574961,32.5561657 C60.2813216,33.8911853 62.8792219,36.3297183 62.8959163,37.4049365 C62.9074739,38.5393173 64.7990741,37.1708579 65.1946022,36.2512634 C65.5464681,35.4307022 65.1535084,39.5913848 65.0713207,40.4440997 C65.0610473,40.5469914 65.0764575,40.6447385 65.1136987,40.7399133 L66.6996636,44.698671 C66.7394732,44.7977042 66.7535992,44.9005959 66.7420416,45.007346 C66.6701274,45.6517052 66.4453955,48.0799491 67.0951917,48.449073 C67.7629664,48.8207692 71.7413624,49.1165828 72.6248797,49.1783178 C72.7391719,49.1873208 72.8508957,49.1641702 72.9510619,49.1101521 C73.8731047,48.6136997 78.7709751,45.8214765 81.4356529,41.0640221 C84.1028991,36.2962785 83.467229,29.5967435 83.3259689,28.3851939 C83.3105587,28.2552931 83.2617598,28.1459707 83.1770038,28.0495098 C82.4219048,27.1916503 78.4280985,22.7904584 76.2051793,23.1029919 C73.7434023,23.4489652 74.6692976,23.7795047 74.6692976,23.7795047 C74.6692976,23.7795047 74.4561233,22.9409375 72.8714427,22.7351541 C71.2970354,22.5280846 67.0001622,21.3293964 61.758131,25.9903899 C61.7067637,26.0559833 61.6232918,26.1640196 61.5732087,26.2308992 L58.916236,31.5967007 Z" id="Fill-580" fill="#231916"></path>
                    <path d="M63.7708295,38.0853077 C63.6090226,39.3560201 64.183052,40.4775395 65.0562958,40.5945788 C65.9346763,40.7103319 66.7758156,39.7701591 66.9440434,38.4981606 C67.1084187,37.2287344 66.531821,36.107215 65.6585772,35.992748 C64.7853334,35.8757088 63.9416257,36.8145954 63.7708295,38.0853077" id="Fill-582" fill="#F5DAB7"></path>
                    <path d="M80.4312941,165.576983 C80.4312941,165.576983 81.340495,168.616146 80.6971198,169.322241 C80.0575971,170.030907 76.974276,171.440523 75.980319,170.32029 C74.9837937,169.202629 71.2892019,167.353151 69.590229,163.903707 C67.8963929,160.458122 73.9436063,162.27416 75.3960162,162.168696 C76.8497103,162.06709 80.4312941,165.576983 80.4312941,165.576983" id="Fill-584" fill="#946134"></path>
                    <path d="M52.2758589,95.1303886 C52.2758589,95.1303886 49.7344626,100.031891 49.7306101,101.845357 C49.7254733,103.656251 47.7748008,168.609201 47.1442674,170.899827 C46.513734,173.193026 46.8578948,175.256004 46.8578948,175.256004 C46.8578948,175.256004 51.5323175,178.448219 53.1491027,176.405819 C54.765888,174.365991 54.8198236,173.238041 54.8198236,173.238041 L60.4445411,140.268972 L65.853516,100.689112 L52.2758589,95.1303886 Z" id="Fill-586" fill="#595757"></path>
                    <path d="M68.8448898,115.941004 L75.017953,164.255082 C75.017953,164.255082 74.6365509,167.280098 77.4489097,167.129619 C81.7059732,166.898112 81.0741557,163.660883 81.0741557,163.660883 C81.0741557,163.660883 78.9732338,114.252294 79.2557538,111.505086 C79.5408423,108.759164 68.797375,115.303076 68.797375,115.303076" id="Fill-588" fill="#595757"></path>
                    <path d="M54.0730717,75.4249584 C54.0730717,75.4249584 52.1622088,92.8921086 51.1836621,94.8894934 C51.091201,95.0746985 51.0578122,95.2766234 51.0706541,95.4875514 C51.2144824,97.5248068 55.8542323,100.49066 55.8542323,100.49066 L61.8526468,73.2680914 L54.0730717,75.4249584 Z" id="Fill-590" fill="#81C0AC"></path>
                    <path d="M56.6802182,35.6360997 L64.3583428,36.6405798" id="Stroke-592" stroke="#231916" stroke-width="0.962830189"></path>
                    <path d="M82.6861894,77.590314 C82.6065701,76.4739392 85.5229476,54.0898525 85.5229476,54.0898525 L64.4251203,60.4099744 L51.0709109,72.070175 C51.0709109,72.070175 54.2235779,90.3385941 53.1281706,95.2285216 C52.0353316,100.121021 48.3895387,112.878304 48.899359,115.574067 L49.4078951,118.258254 C49.4078951,118.258254 81.7320421,117.712928 84.4737709,111.262905 C87.2167838,104.809024 82.7670929,78.7054027 82.6861894,77.590314" id="Fill-594" fill="#EEEEEE"></path>
                    <path d="M76.383167,47.9196953 C76.383167,47.9196953 69.5166454,51.8887421 64.5404399,51.2688197" id="Stroke-596" stroke="#066EB7" stroke-width="1.28377358"></path>
                </g>
                <g id="Group-83" transform="translate(99.000000, 124.000000)">
                    <g id="Group-28" transform="translate(11.000000, 0.000000)" fill-rule="nonzero">
                        <path d="M27.6914897,148.921075 C27.98388,151.273407 27.7988745,153.178064 27.1364731,154.635048 C26.4740717,156.092032 24.761914,158.360277 22,161.439783 L25.8838315,163.283415 L30.8070343,157.895128 L32.2729462,153.773616 L32.2729462,148.921075 L27.6914897,148.921075 Z" id="Path-21" fill="#FACEBD"></path>
                        <path d="M41.6914897,152.921075 C41.98388,155.273407 41.7988745,157.178064 41.1364731,158.635048 C40.4740717,160.092032 38.761914,162.360277 36,165.439783 L39.8838315,167.283415 L44.8070343,161.895128 L46.2729462,157.773616 L46.2729462,152.921075 L41.6914897,152.921075 Z" id="Path-21-Copy" fill="#FACEBD"></path>
                        <path d="M23.6520392,159.30858 C22.6096033,160.25338 21.3715576,161.358656 19.9379021,162.624407 C18.5042466,163.890158 18.7141806,164.678101 20.5677043,164.988236 L24.591652,164.988236 C26.4033499,164.988236 28.073317,164.008218 28.9568138,162.426547 L29.7481457,161.009874 L32.4826781,157.128683 L32.4826781,161.875732 L34.0372681,161.599451 L34.0372681,154.002678 C33.4393745,152.252718 32.9211778,151.606124 32.4826781,152.062897 C31.8249285,152.748056 29.2417828,160.177494 26.6080865,161.599451 C24.8522889,162.547421 23.8669398,161.783798 23.6520392,159.30858 Z" id="Path-22" fill="#892D2C"></path>
                        <path d="M37.6520392,163.30858 C36.6096033,164.25338 35.3715576,165.358656 33.9379021,166.624407 C32.5042466,167.890158 32.7141806,168.678101 34.5677043,168.988236 L38.591652,168.988236 C40.4033499,168.988236 42.073317,168.008218 42.9568138,166.426547 L43.7481457,165.009874 L46.4826781,161.128683 L46.4826781,165.875732 L48.0372681,165.599451 L48.0372681,158.002678 C47.4393745,156.252718 46.9211778,155.606124 46.4826781,156.062897 C45.8249285,156.748056 43.2417828,164.177494 40.6080865,165.599451 C38.8522889,166.547421 37.8669398,165.783798 37.6520392,163.30858 Z" id="Path-22-Copy" fill="#892D2C"></path>
                        <polygon id="Path-20" fill="#381814" points="26.8836356 19 25 35 35 32.2604864 35 23.2075699"></polygon>
                        <path d="M35.3486462,28.0536298 L35.3486462,22.888447 C28.5211402,22.888447 26.4014397,17.3688551 28.9895447,6.32967128 C30.753544,0.140937798 34.9098651,-0.802504878 41.458508,3.49934325 L44.9224412,13.0663112 L42.8378004,36.2631036 L36.4224412,49.1300337 L30.928131,49.8532701 L28.9895447,40.5446009 L30.928131,28.6523925 L35.3486462,28.0536298 Z" id="Path-15" fill="#F4D0BE" transform="translate(36.422441, 25.353270) rotate(-7.000000) translate(-36.422441, -25.353270) "></path>
                        <path d="M48.1813273,71.0344521 L53.7591157,35.3163556 L39.3355583,32.8251065 L34.3068505,42.9443618 C33.0881816,43.896192 32.4788472,42.8628152 32.4788472,39.8442313 C32.4788472,36.8256475 32.4788472,33.2212478 32.4788472,29.0310321 C30.6298505,29.1713674 29.039465,29.4349403 27.7076907,29.8217508 C25.7100293,30.4019666 23.7981262,34.358291 22.4785166,36.4318035 C19.6292441,40.9088867 16.3224742,44.8524639 14.7563101,44.8524639 C11.1664469,44.8524639 6.53613844,44.2164299 0.865384615,42.9443618 L0.865384615,45.8326322 C7.23579062,49.7310052 12.0265558,52.0000357 15.2376803,52.6397236 C18.4488047,53.2794114 21.9520541,50.2143073 25.7474285,43.4444111 C25.7474285,39.2026969 25.7474285,39.0360138 25.7474285,42.9443618 C25.7474285,44.4794611 24.4078997,46.4329444 24.6095084,49.5400272 C24.7247986,51.316815 27.0844922,54.7663354 27.7076907,58.7610334 C28.0410287,60.8977274 28.0410287,64.6287027 27.7076907,69.9539595 C32.9058987,71.3327839 36.7818545,72.0895818 39.3355583,72.2243531 C41.8892621,72.3591244 44.8378518,71.9624907 48.1813273,71.0344521 Z" id="Path-13" fill="#D8DDF2"></path>
                        <path d="M27.9429119,68.3728267 C25.4683286,70.6674341 24.231037,75.8522236 24.231037,83.9271951 C24.231037,90.4694251 25.7246283,104.910748 26.3455981,131.023012 C26.4425871,135.101473 26.4425871,141.265997 26.3455981,149.516582 L33.7815959,149.516582 C32.6179798,114.547728 33.3995017,94.0352338 36.1261614,87.9790989 C36.8457107,87.3992149 37.4143798,87.7554658 37.8321684,89.0478516 C37.4652019,105.964113 37.4652019,117.636356 37.8321684,124.064581 C38.199135,130.492806 39.249344,139.975374 40.9827953,152.512284 L48.3923276,152.512284 C46.5732873,139.132841 45.6637671,129.083741 45.6637671,122.364985 C45.6637671,115.646228 46.5732873,107.321767 48.3923276,97.3916016 C50.054604,90.3722554 50.8857422,85.420758 50.8857422,82.5371094 C50.8857422,79.6534608 50.054604,75.7913498 48.3923276,70.9507764 C43.9775235,71.3972927 40.5712271,71.3972927 38.1734385,70.9507764 C35.7756498,70.50426 32.3654743,69.6449434 27.9429119,68.3728267 Z" id="Path-12" fill="#90A0D3"></path>
                        <path d="M50.6868426,31.4316829 C55.0280786,34.2485928 53.9790039,35.6650391 53.9790039,41.1113281 C53.9790039,46.5576172 53.0898437,66.8369141 49.34375,68.7563477 C46.8463542,70.0359701 36.7559824,67.2978516 19.0726346,60.5419922 L19.0726346,56.861887 C34.1274016,58.7628816 42.6930424,60.4205417 44.769557,61.8348673 C45.7995221,60.2629272 45.7995221,51.1518491 44.769557,34.501633 L47.2223731,32.2825875 C46.6378622,29.8373778 47.7926853,29.553743 50.6868426,31.4316829 Z" id="Path-14" fill="url(#linearGradient-4)"></path>
                        <path d="M25,7.92310891 C27.1632646,7.98023468 28.5407695,7.51410017 29.1325145,6.52470536 C29.7242595,5.53531056 29.7242595,6.26454753 29.1325145,8.71241628 L37.6552389,10.8811344 C38.6486873,16.3970959 39.1024315,20.2448405 39.0164715,22.4243682 C38.7165338,30.0293304 37.1509845,34.8066827 39.0164715,37.5091053 C43.0176313,43.305353 52.8785136,46.4565029 56.0365732,37.5091053 C59.1946329,28.5617078 49.323602,25.5911639 46.9336821,18.8294198 C44.5437622,12.0676758 45.6264294,9.70401955 44.4473203,6.52470536 C43.2682112,3.34539117 41.3540365,-1.13686838e-13 33.9442371,-1.13686838e-13 C29.0043709,-1.12955717e-13 26.0229585,2.6410363 25,7.92310891 Z" id="Path-19" fill="#381814"></path>
                    </g>
                    <g id="Group-84" transform="translate(0.000000, 26.000000)">
                        <path d="M41.1167172,40.1809045 L55.5259125,37.0313885 C56.1324666,36.2606042 55.8961074,35.657936 54.8168351,35.2233841 C53.7375627,34.7888321 48.3795839,33.4561271 38.7428988,31.2252692 L25.6279971,37.7881083 L41.1167172,40.1809045 Z" id="Path-23" fill="#8597AF" fill-rule="nonzero"></path>
                        <path d="M20.3056974,6.92988934 L42.9391203,23.3740337 C43.3229858,23.6529283 43.4580149,24.1631817 43.2623428,24.5954401 L33.3146204,46.5709104 C33.0868641,47.074046 32.494359,47.297285 31.9912234,47.0695286 C31.9002434,47.0283444 31.8159459,46.973764 31.7411369,46.9076042 L9.94900699,27.6350343 C9.61507735,27.3397129 9.51695165,26.8590211 9.70841717,26.4564485 L18.8148464,7.30940383 C19.0520541,6.81065443 19.6486652,6.59863298 20.1474146,6.83584067 C20.2029554,6.86225613 20.2559408,6.89373909 20.3056974,6.92988934 Z" id="Path-24" fill="#A0AFC2" fill-rule="nonzero" transform="translate(26.481429, 26.948720) rotate(-36.000000) translate(-26.481429, -26.948720) "></path>
                        <path d="M25.4972946,25.2655726 C25.4972946,26.8274491 23.7446992,27.8385372 24.249886,29.3475815 C24.6678414,30.6186627 25.8790895,31.4786304 24.9546747,31.0449227 C23.302701,30.3248539 21.3028858,28.2817188 22.5367062,26.6833129 C23.0713405,25.8765866 24.2400378,25.1529412 23.7815879,22.80142 C23.7685271,22.7519832 23.8079161,22.7618402 23.8101491,22.7624828 C24.3724098,22.996631 25.4972946,23.5880359 25.4972946,25.2655726 Z M26.5268082,26.0771444 C26.928216,26.3512607 28.0904079,27.3670655 28.2502831,29.0150644 C28.4153273,30.6943241 27.2385719,31.1587251 27.1886448,31.1729759 C26.5526623,31.3426885 26.8957394,31.7245484 26.5526623,31.3426885 C25.9616622,30.7067025 24.90166,29.6022754 25.9889059,27.7286464 C26.3094975,27.1127637 26.5253788,26.4131886 26.4913161,26.0837213" id="Combined-Shape" fill="#D4E2F4"></path>
                    </g>
                </g>
                <g id="Group-81" style="mix-blend-mode: lighten;" transform="translate(342.000000, 203.000000)"></g>
                <g id="Group-87">
                    <g id="Group-86">
                        <path d="M-3.48408802e-13,104.211288 C-2.40243093e-13,82.2327987 46.2845164,0.475034989 200,0.475034989 C353.715484,0.475034989 400,85.0555835 400,104.211288 C400,116.981758 400,156.250508 400,222.017538 C347.563439,171.161288 280.896772,145.733163 200,145.733163 C119.103228,145.733163 52.4365613,171.161288 -4.54747351e-13,222.017538 C-4.54747351e-13,158.132365 -4.19301168e-13,118.863615 -3.48408802e-13,104.211288 Z" id="Rectangle-21" fill="#FDFEFF" opacity="0.1"></path>
                        <g id="Group-82" transform="translate(301.449275, 39.590625)">
                            <g id="Path-28-+-Path-29-Mask">
                                <g>
                                    <mask id="mask-6" fill="white">
                                        <use xlink:href="#path-5"></use>
                                    </mask>
                                    <use id="Mask" fill="#84BFE4" xlink:href="#path-5"></use>
                                    <polyline id="Path-28" stroke="#FFFFFF" stroke-width="0.966183575" fill-rule="nonzero" mask="url(#mask-6)" points="2.90289026 26.8403272 4.2417759 32.5853787 6.58706313 32.5853787 6.58706313 38.0127772 10.5798867 32.5853787 12.4173801 35.3015596 20.4675879 29.3368809 25.1060173 38.0127772 34.0526238 26.8403272 37.5314459 29.3368809 45.0962077 29.3368809 49.5682694 43.2614959 55.4358329 41.0565377"></polyline>
                                    <polyline id="Path-29" stroke="#4778A2" stroke-width="0.966183575" fill-rule="nonzero" mask="url(#mask-6)" points="5.79710145 26.96471 9.62355738 19.3125 11.2201902 26.96471 15.6934935 23.138605 18.6148597 37.5328749 26.627821 28.4226874 30.6181615 37.5328749 36.4795172 32.7345781 39.2469313 35.5301723 45.6831245 32.7345781 45.6831245 41.893158 47.3319024 54.3548323 50.8243815 49.5515722 53.9096323 54.3548323 57.4927445 44.5870039"></polyline>
                                </g>
                            </g>
                        </g>
                        <g id="Group-82-Copy" transform="translate(301.449275, 91.734375)">
                            <g id="Path-28-+-Path-29-Mask">
                                <g>
                                    <mask id="mask-8" fill="white">
                                        <use xlink:href="#path-7"></use>
                                    </mask>
                                    <use id="Mask" fill="#84BFE4" xlink:href="#path-7"></use>
                                    <polyline id="Path-28" stroke="#FFFFFF" stroke-width="0.966183575" fill-rule="nonzero" mask="url(#mask-8)" points="2.90289026 26.8403272 4.2417759 32.5853787 6.58706313 32.5853787 6.58706313 38.0127772 10.5798867 32.5853787 12.4173801 35.3015596 20.4675879 29.3368809 25.1060173 38.0127772 34.0526238 26.8403272 37.5314459 29.3368809 45.0962077 29.3368809 49.5682694 43.2614959 55.4358329 41.0565377"></polyline>
                                    <polyline id="Path-29" stroke="#4778A2" stroke-width="0.966183575" fill-rule="nonzero" mask="url(#mask-8)" points="5.79710145 26.96471 9.62355738 19.3125 11.2201902 26.96471 15.6934935 23.138605 18.6148597 37.5328749 26.627821 28.4226874 30.6181615 37.5328749 36.4795172 32.7345781 39.2469313 35.5301723 45.6831245 32.7345781 45.6831245 41.893158 47.3319024 54.3548323 50.8243815 49.5515722 53.9096323 54.3548323 57.4927445 44.5870039"></polyline>
                                </g>
                            </g>
                        </g>
                        <g id="Group-79" transform="translate(17.391304, 93.665625)">
                            <path d="M25.4029771,2.27373675e-13 C17.7463122,5.36287107 12.417281,9.99866754 9.41588342,13.9073894 C6.41448587,17.8161113 3.27585807,24.2077523 0,33.0823126 L0,85.6548909 C5.56185844,73.8684906 9.79568794,65.9344499 12.7014885,61.8527687 C15.6072891,57.7710875 19.8411186,53.8108898 25.4029771,49.9721757 L25.4029771,2.27373675e-13 Z" id="Fill-429" fill="#84BFE4" opacity="0.100000001"></path>
                            <path d="M11.8417747,42.9165291 L19.7538775,27.4199705 C21.3448126,28.1120554 21.2300506,31.9870942 19.1328667,37.8376008 C16.222168,45.9623074 10.6099337,54.7873682 6.59974058,57.5461176 C2.59047295,60.3030997 1.69921608,55.9533942 4.61176577,47.8270038 C6.70709863,41.9763304 10.2027136,35.7762409 13.4919419,31.7274062 L11.8417747,42.9165291 Z" id="Combined-Shape" fill="url(#linearGradient-9)"></path>
                            <path d="M22.0541161,21.3569907 L14.1420134,36.8544746 L15.793106,25.6645098 C17.0721476,24.0901593 18.3215731,22.8305215 19.444205,22.0572744 C20.566837,21.2858779 21.4349563,21.0892957 22.0541161,21.3569907 Z" id="Path" fill="#FFFFFF"></path>
                        </g>
                        <g id="Group-77" transform="translate(91.787440, 26.071875)">
                            <path d="M0.246583032,22.6573067 C30.4888573,12.3597575 57.7567165,6.31775861 82.0501606,4.53131003 C106.343605,2.74486145 138.574872,4.17113644 178.743961,8.810135 L178.743961,96.68201 C140.350321,91.8039385 108.119054,90.7030689 82.0501606,93.3794014 C55.9812669,96.0557339 30.2415194,101.662853 4.83091787,110.20076 L0.246583032,22.6573067 Z" id="Mask" fill="#84BFE4" opacity="0.100000001"></path>
                            <g id="Group-80" transform="translate(114.975845, 29.098038)">
                                <g id="Oval-2-Copy">
                                    <mask id="mask-11" fill="white">
                                        <use xlink:href="#path-10"></use>
                                    </mask>
                                    <use id="Mask" fill="#8499B5" fill-rule="nonzero" xlink:href="#path-10"></use>
                                    <ellipse fill="#C6D5E9" fill-rule="nonzero" mask="url(#mask-11)" cx="23.1783414" cy="46.8026367" rx="16.5559581" ry="16.5463867"></ellipse>
                                </g>
                                <ellipse id="Oval-2" fill="#C6D5E9" fill-rule="nonzero" cx="23.1783414" cy="18.4374023" rx="8.98752013" ry="8.98232422"></ellipse>
                            </g>
                            <g id="Group-80-Copy" transform="translate(56.038647, 0.129288)">
                                <g id="Oval-2-Copy">
                                    <mask id="mask-13" fill="white">
                                        <use xlink:href="#path-12"></use>
                                    </mask>
                                    <use id="Mask" fill="#8499B5" fill-rule="nonzero" xlink:href="#path-12"></use>
                                    <ellipse fill="#C6D5E9" fill-rule="nonzero" mask="url(#mask-13)" cx="19.726248" cy="39.8320312" rx="14.0901771" ry="14.0820312"></ellipse>
                                </g>
                                <ellipse id="Oval-2" fill="#C6D5E9" fill-rule="nonzero" cx="19.7949806" cy="16.0152439" rx="7.54094497" ry="7.53658537"></ellipse>
                            </g>
                            <g id="Group-80-Copy-2" transform="translate(10.628019, 43.582413)">
                                <g id="Oval-2-Copy">
                                    <mask id="mask-15" fill="white">
                                        <use xlink:href="#path-14"></use>
                                    </mask>
                                    <use id="Mask" fill="#8499B5" fill-rule="nonzero" xlink:href="#path-14"></use>
                                    <ellipse fill="#C6D5E9" fill-rule="nonzero" mask="url(#mask-15)" cx="27.6167472" cy="55.7648437" rx="19.726248" ry="19.7148437"></ellipse>
                                </g>
                                <ellipse id="Oval-2" fill="#C6D5E9" fill-rule="nonzero" cx="28.0023731" cy="22.2940789" rx="10.9161793" ry="10.9098684"></ellipse>
                            </g>
                        </g>
                    </g>
                    <g id="Group-85" transform="translate(0.000000, 104.287500)">
                        <path d="M72.4975845,80.4217471 L72.4975845,202.952277 C30.1717801,186.3453 6.00591862,158.7805 0,120.257876 L0,0.134295723 C-3.56496876e-14,38.4230198 24.1658615,65.1855036 72.4975845,80.4217471 Z M327.570048,80.4004139 C375.856683,65.1605286 400,38.4051559 400,0.134295723 L400,120.257876 C393.997281,158.759977 369.853964,186.315926 327.570048,202.925725 L327.570048,80.4004139 Z" id="Combined-Shape" fill="#DAE7F7" opacity="0.600000024"></path>
                        <path d="M30.9178744,79.1050383 C36.6993714,83.8617871 41.5604824,87.5220699 45.5012073,90.0858869 C49.4419323,92.6497038 53.7245149,95.1438449 58.3489552,97.5683102 L58.3489552,103.36206 C52.8552497,100.152348 47.7648311,97.0088654 43.0776994,93.9316123 C38.3905677,90.8543592 34.3372927,87.8434178 30.9178744,84.8987883 L30.9178744,79.1050383 Z M30.9178744,90.6925383 C36.6993714,95.4492871 41.5604824,99.1095699 45.5012073,101.673387 C49.4419323,104.237204 53.7245149,106.731345 58.3489552,109.15581 L58.3489552,114.94956 C52.8552497,111.739848 47.7648311,108.596365 43.0776994,105.519112 C38.3905677,102.441859 34.3372927,99.4309178 30.9178744,96.4862883 L30.9178744,90.6925383 Z M30.9178744,102.280038 C36.6993714,107.036787 41.5604824,110.69707 45.5012073,113.260887 C49.4419323,115.824704 53.7245149,118.318845 58.3489552,120.74331 L58.3489552,126.53706 C52.8552497,123.327348 47.7648311,120.183865 43.0776994,117.106612 C38.3905677,114.029359 34.3372927,111.018418 30.9178744,108.073788 L30.9178744,102.280038 Z M30.9178744,112.901913 C36.6993714,117.658662 41.5604824,121.318945 45.5012073,123.882762 C49.4419323,126.446579 53.7245149,128.94072 58.3489552,131.365185 L58.3489552,137.158935 C52.8552497,133.949223 47.7648311,130.80574 43.0776994,127.728487 C38.3905677,124.651234 34.3372927,121.640293 30.9178744,118.695663 L30.9178744,112.901913 Z M30.9178744,124.489413 C36.6993714,129.246162 41.5604824,132.906445 45.5012073,135.470262 C49.4419323,138.034079 53.7245149,140.52822 58.3489552,142.952685 L58.3489552,148.746435 C52.8552497,145.536723 47.7648311,142.39324 43.0776994,139.315987 C38.3905677,136.238734 34.3372927,133.227793 30.9178744,130.283163 L30.9178744,124.489413 Z" id="Combined-Shape" fill="#FFFFFF" fill-rule="nonzero"></path>
                        <path d="M4.83091787,77.1737883 C11.2344419,87.7380019 16.5579107,94.3583619 20.8013241,97.0348682 C20.8013241,97.0348682 20.8013241,102.478442 20.8013241,102.478442 C12.816121,98.0346607 4.83091787,84.3938168 4.83091787,84.3938168 C4.83091787,84.3938168 4.83091787,81.9871406 4.83091787,77.1737883 Z M4.83091787,89.7269133 C11.2344419,100.291127 16.5579107,106.911487 20.8013241,109.587993 C20.8013241,109.587993 20.8013241,115.031567 20.8013241,115.031567 C12.816121,110.587786 4.83091787,96.9469418 4.83091787,96.9469418 C4.83091787,96.9469418 4.83091787,94.5402656 4.83091787,89.7269133 Z M4.83091787,102.280038 C11.2344419,112.844252 16.5579107,119.464612 20.8013241,122.141118 C20.8013241,122.141118 20.8013241,127.584692 20.8013241,127.584692 C12.816121,123.140911 4.83091787,109.500067 4.83091787,109.500067 C4.83091787,109.500067 4.83091787,107.093391 4.83091787,102.280038 Z M4.83091787,114.833163 C11.2344419,125.397377 16.5579107,132.017737 20.8013241,134.694243 C20.8013241,134.694243 20.8013241,140.137817 20.8013241,140.137817 C12.816121,135.694036 4.83091787,122.053192 4.83091787,122.053192 C4.83091787,122.053192 4.83091787,119.646516 4.83091787,114.833163 Z" id="Combined-Shape" fill="#FFFFFF" fill-rule="nonzero" opacity="0.600000024"></path>
                        <path d="M335.671316,177.977456 C339.202863,143.482109 344.773462,124.022826 352.383114,119.599608 C359.67008,113.497488 365.015444,126.521353 370.904737,121.697474 C374.883341,119.557336 373.474848,71.4878541 381.710419,67.9029872 C387.200799,65.5130759 390.796463,79.2698548 392.497409,109.173324" id="Path-25" stroke="#BCCBE7" stroke-width="0.966183575" fill-rule="nonzero"></path>
                        <path d="M337.257378,135.866967 C343.591889,149.914817 348.707415,156.060356 352.603954,154.303586 C358.448763,151.668429 363.861487,100.747083 371.595603,97.1629538 C379.329719,93.5788243 384.388605,123.136718 395.131993,116.098011" id="Path-26" stroke="#84BFE4" stroke-width="0.966183575" fill-rule="nonzero"></path>
                    </g>
                </g>
            </g>
        </g>
    </g>
</svg>